<svg width="18" height="11" viewBox="0 0 18 11" fill="none" xmlns="http://www.w3.org/2000/svg">
<path d="M8.60001 1.86666C8.80001 1.59999 9.20001 1.59999 9.40001 1.86666L10.8 3.73332C11.4 4.53332 12.6 4.53332 13.2 3.73332L14.525 1.96672C14.7357 1.68574 15.1628 1.70389 15.349 2.00172L17.076 4.76499C17.2224 4.99916 17.5308 5.07034 17.765 4.92399C17.9992 4.77763 18.0704 4.46916 17.924 4.23499L16.197 1.47172C15.6385 0.578231 14.3571 0.523803 13.725 1.36672L12.4 3.13332C12.2 3.39999 11.8 3.39999 11.6 3.13332L10.2 1.26666C9.60001 0.466656 8.40001 0.466657 7.80001 1.26666L6.40001 3.13332C6.20001 3.39999 5.80001 3.39999 5.60001 3.13332L4.27505 1.36672C3.64287 0.523802 2.36148 0.578231 1.80305 1.47172L0.0760067 4.23499C-0.0703484 4.46916 0.000838161 4.77763 0.235006 4.92399C0.469175 5.07034 0.77765 4.99916 0.924005 4.76499L2.65105 2.00172C2.83719 1.70389 3.26432 1.68574 3.47505 1.96672L4.80001 3.73332C5.40001 4.53332 6.60001 4.53332 7.20001 3.73332L8.60001 1.86666Z" fill="black"/>
<path d="M8.60001 7.36666C8.80001 7.09999 9.20001 7.09999 9.40001 7.36666L10.8 9.23332C11.4 10.0333 12.6 10.0333 13.2 9.23332L14.525 7.46671C14.7357 7.18574 15.1628 7.20389 15.349 7.50172L17.076 10.265C17.2224 10.4992 17.5308 10.5703 17.765 10.424C17.9992 10.2776 18.0704 9.96916 17.924 9.73499L16.197 6.97172C15.6385 6.07823 14.3571 6.0238 13.725 6.86671L12.4 8.63332C12.2 8.89999 11.8 8.89999 11.6 8.63332L10.2 6.76666C9.60001 5.96666 8.40001 5.96666 7.80001 6.76666L6.40001 8.63332C6.20001 8.89999 5.80001 8.89999 5.60001 8.63332L4.27505 6.86671C3.64287 6.0238 2.36148 6.07823 1.80305 6.97172L0.0760067 9.73499C-0.0703484 9.96916 0.000838161 10.2776 0.235006 10.424C0.469175 10.5703 0.77765 10.4992 0.924005 10.265L2.65105 7.50172C2.83719 7.20389 3.26432 7.18574 3.47505 7.46671L4.80001 9.23332C5.40001 10.0333 6.60001 10.0333 7.20001 9.23332L8.60001 7.36666Z" fill="black"/>
</svg>
