<svg width="19" height="19" viewBox="0 0 19 19" fill="none" xmlns="http://www.w3.org/2000/svg">
<path fill-rule="evenodd" clip-rule="evenodd" d="M9.50004 19C13.314 19 16.603 16.7525 18.1149 13.5097C18.6685 12.8234 19 11.9504 19 11C19 8.79086 17.2091 7 15 7C12.7909 7 11 8.79086 11 11C11 13.2091 12.7909 15 15 15C15.3853 15 15.7579 14.9455 16.1105 14.8438C14.5522 16.7691 12.1699 18 9.50004 18C7.4935 18 5.64935 17.3047 4.19535 16.142C3.98504 15.9042 3.72298 15.6284 3.60911 15.5863C3.51329 15.5508 3.4131 15.5314 3.32528 15.5314C3.04914 15.5314 2.82528 15.7552 2.82528 16.0314C2.82528 16.1928 2.90175 16.3363 3.02042 16.4277L3.00378 16.4318C4.70271 18.0246 6.98746 19 9.50004 19ZM17.2692 12.9624C17.7245 12.4364 18 11.7504 18 11C18 9.34315 16.6569 8 15 8C13.3431 8 12 9.34315 12 11C12 12.6569 13.3431 14 15 14C15.902 14 16.711 13.6019 17.261 12.9719L17.2647 12.9635L17.2692 12.9624Z" fill="black"/>
<path fill-rule="evenodd" clip-rule="evenodd" d="M9.50005 0C13.2252 0 16.4495 2.14403 18.0064 5.26539C18.0064 5.17365 18.0204 5.32656 18.0064 5.26539C18.0064 5.54154 18.0617 6 17.5 6C17.2239 6 17 5.5 17 5.5C17 5.49762 16.9994 5.49528 16.9983 5.49318C15.5663 2.81902 12.7456 1 9.50005 1C6.23055 1 3.39221 2.84593 1.97036 5.55245C2.56535 5.20141 3.25916 5 4 5C6.20914 5 8 6.79086 8 9C8 11.2091 6.20914 13 4 13C2.00607 13 0.352885 11.5411 0.0497159 9.63244L0.00111914 9.64425C0.000404644 9.59626 4.61363e-05 9.54817 4.61363e-05 9.5C4.61363e-05 9.39871 0.00163146 9.29778 0.00477866 9.19725C0.00160516 9.1319 0 9.06614 0 9C0 8.68699 0.0359538 8.38237 0.103957 8.09005C0.785092 3.512 4.73243 0 9.50005 0ZM1.00571 9.18668C1.1021 10.7566 2.40583 12 4 12C5.65686 12 7 10.6569 7 9C7 7.34314 5.65686 6 4 6C2.59129 6 1.40936 6.97094 1.08693 8.28012C1.04417 8.57761 1.01682 8.88007 1.00571 9.18668Z" fill="black"/>
</svg>
