<svg width="18" height="17" viewBox="0 0 18 17" fill="none" xmlns="http://www.w3.org/2000/svg">
<path d="M12.5 12C12.5 11.7239 12.7239 11.5 13 11.5H12.9687C14.2144 10.4006 15 8.79204 15 7C15 3.68629 12.3137 1 9 1C5.68629 1 3 3.68629 3 7C3 8.79204 3.78563 10.4006 5.03127 11.5H5C5.27614 11.5 5.5 11.7239 5.5 12C5.5 12.2761 5.27614 12.5 5 12.5H1C0.723862 12.5 0.5 12.2761 0.5 12C0.5 11.7239 0.723862 11.5 1 11.5H3.63789C2.61569 10.2832 2 8.71352 2 7C2 3.134 5.134 0 9 0C12.866 0 16 3.134 16 7C16 8.71352 15.3843 10.2832 14.3621 11.5H17C17.2761 11.5 17.5 11.7239 17.5 12C17.5 12.2761 17.2761 12.5 17 12.5H13C12.7239 12.5 12.5 12.2761 12.5 12Z" fill="black"/>
<path d="M1 15.5C0.723862 15.5 0.5 15.7239 0.5 16C0.5 16.2761 0.723862 16.5 1 16.5H17C17.2761 16.5 17.5 16.2761 17.5 16C17.5 15.7239 17.2761 15.5 17 15.5H1Z" fill="black"/>
</svg>
