<svg width="14" height="19" viewBox="0 0 14 19" fill="none" xmlns="http://www.w3.org/2000/svg">
<path d="M1.77639 0.552789C2.02338 0.429294 2.32372 0.529407 2.44721 0.776396L3.4925 2.86697C4.38152 4.645 4.88435 6.56269 4.99828 8.5H9.00172C9.11565 6.56269 9.61848 4.645 10.5075 2.86697L11.5528 0.776396C11.6763 0.529407 11.9766 0.429294 12.2236 0.552789C12.4706 0.676284 12.5707 0.97662 12.4472 1.22361L11.4019 3.31418C10.5832 4.95162 10.1163 6.71628 10.0036 8.5H13C13.2761 8.5 13.5 8.72386 13.5 9C13.5 9.27614 13.2761 9.5 13 9.5H9.97751C9.99745 11.3172 10.3842 13.1333 11.1402 14.8344L12.4569 17.7969C12.5691 18.0493 12.4554 18.3448 12.2031 18.4569C11.9507 18.5691 11.6552 18.4554 11.5431 18.2031L10.2264 15.2406C9.41283 13.41 8.99743 11.4555 8.97745 9.5H5.02255C5.00257 11.4555 4.58717 13.41 3.77357 15.2406L2.45691 18.2031C2.34475 18.4554 2.04927 18.5691 1.79693 18.4569C1.54459 18.3448 1.43094 18.0493 1.54309 17.7969L2.85976 14.8344C3.61583 13.1333 4.00255 11.3172 4.02249 9.5H1C0.723858 9.5 0.5 9.27614 0.5 9C0.5 8.72386 0.723858 8.5 1 8.5H3.99643C3.88373 6.71628 3.41679 4.95162 2.59807 3.31418L1.55279 1.22361C1.42929 0.97662 1.5294 0.676284 1.77639 0.552789Z" fill="black"/>
</svg>
