<svg width="18" height="18" viewBox="0 0 18 18" fill="none" xmlns="http://www.w3.org/2000/svg">
<path d="M17.4621 0.808609C17.4377 0.749636 17.4015 0.694385 17.3536 0.646447L17 0.5H9C8.72386 0.5 8.5 0.723857 8.5 1C8.5 1.27614 8.72386 1.5 9 1.5H15.7929L6.5 10.7929L3.35355 7.64645C3.15829 7.45118 2.84171 7.45118 2.64645 7.64645C2.45118 7.84171 2.45118 8.15829 2.64645 8.35355L5.79289 11.5L0.646447 16.6464C0.451184 16.8417 0.451184 17.1583 0.646447 17.3536C0.841709 17.5488 1.15829 17.5488 1.35355 17.3536L6.5 12.2071L9.64645 15.3536C9.84171 15.5488 10.1583 15.5488 10.3536 15.3536C10.5488 15.1583 10.5488 14.8417 10.3536 14.6464L7.20711 11.5L16.5 2.20711V8.5C16.5 8.77614 16.7239 9 17 9C17.2761 9 17.5 8.77614 17.5 8.5V1C17.5 0.932205 17.4865 0.867562 17.4621 0.808609Z" fill="black"/>
</svg>
