<svg width="18" height="18" viewBox="0 0 18 18" fill="none" xmlns="http://www.w3.org/2000/svg">
<path d="M1.39044 0.687656C1.21793 0.472025 0.903287 0.437064 0.687656 0.609569C0.472025 0.782074 0.437064 1.09672 0.609569 1.31235L2.5 3.67539V14H3.5V3.68188L5.12219 1.74719C5.32241 1.50839 5.68993 1.50895 5.88944 1.74835L7.5 3.68103V14H8.5V3.68103L10.1159 1.74196C10.3158 1.50208 10.6842 1.50208 10.8841 1.74196L12.3841 3.54196C12.459 3.63182 12.5 3.74508 12.5 3.86205V11.4983L12.5 11.5V13.8486C12.5 14.3721 12.6549 14.8838 12.9453 15.3193C13.437 16.057 14.2649 16.5 15.1514 16.5H16V17.7586C16 17.8477 16.1077 17.8923 16.1707 17.8293L17.9293 16.0707C17.9683 16.0317 17.9683 15.9683 17.9293 15.9293L16.1707 14.1707C16.1077 14.1077 16 14.1523 16 14.2414V15.5H15.1514C14.5992 15.5 14.0836 15.2241 13.7774 14.7646C13.5965 14.4934 13.5 14.1746 13.5 13.8486L13.5 3.86205C13.5 3.51115 13.377 3.17135 13.1523 2.90178L11.6523 1.10178C11.0526 0.382146 9.94736 0.382144 9.34767 1.10178L8 2.71898L6.65766 1.10817C6.05915 0.389951 4.95659 0.388283 4.35591 1.10469L3.00909 2.71097L1.39044 0.687656Z" fill="black"/>
</svg>
