<svg width="20" height="18" viewBox="0 0 20 18" fill="none" xmlns="http://www.w3.org/2000/svg">
<path fill-rule="evenodd" clip-rule="evenodd" d="M0.5 1C0.5 0.723858 0.723858 0.5 1 0.5H1.38303C2.86695 0.5 4.30668 1.00503 5.46542 1.93203C6.07196 2.41726 6.58713 3.00673 6.98676 3.67278L7.42045 4.39559C7.77707 4.98996 8.06757 5.62157 8.28676 6.27914L8.4356 6.72567C8.93145 6.57883 9.45652 6.5 10 6.5C10.5435 6.5 11.0685 6.57883 11.5644 6.72567L11.7132 6.27914C11.9324 5.62157 12.2229 4.98996 12.5795 4.39559L13.0132 3.67278C13.4129 3.00673 13.928 2.41726 14.5346 1.93203C15.6933 1.00503 17.1331 0.5 18.617 0.5H19C19.2761 0.5 19.5 0.723858 19.5 1C19.5 1.27614 19.2761 1.5 19 1.5H18.617C17.3601 1.5 16.1407 1.92775 15.1593 2.7129C14.6455 3.12387 14.2092 3.62314 13.8707 4.18728L13.437 4.91009C13.118 5.44189 12.858 6.00701 12.6619 6.59537L12.4947 7.09701C14.2784 8.0064 15.5 9.86054 15.5 12C15.5 15.0376 13.0376 17.5 10 17.5C6.96243 17.5 4.5 15.0376 4.5 12C4.5 9.86054 5.72158 8.0064 7.50529 7.09701L7.33808 6.59537C7.14196 6.00701 6.88204 5.44189 6.56296 4.91009L6.12927 4.18728C5.79079 3.62314 5.35445 3.12387 4.84073 2.7129C3.8593 1.92775 2.63987 1.5 1.38303 1.5H1C0.723858 1.5 0.5 1.27614 0.5 1ZM10 16.5C12.4853 16.5 14.5 14.4853 14.5 12C14.5 9.51472 12.4853 7.5 10 7.5C7.51472 7.5 5.5 9.51472 5.5 12C5.5 14.4853 7.51472 16.5 10 16.5Z" fill="black"/>
</svg>
