<svg width="19" height="17" viewBox="0 0 19 17" fill="none" xmlns="http://www.w3.org/2000/svg">
<path fill-rule="evenodd" clip-rule="evenodd" d="M0.687656 0.609569C0.903287 0.437064 1.21793 0.472025 1.39044 0.687656L3.00909 2.71097L4.35591 1.10469C4.95659 0.388283 6.05915 0.389951 6.65766 1.10817L8 2.71898L9.34767 1.10178C9.94736 0.382144 11.0526 0.382146 11.6523 1.10178L13.1523 2.90178C13.377 3.17135 13.5 3.51115 13.5 3.86205V4.80301C13.8346 4.48228 14.1246 4.22511 14.3969 4.03064C14.9124 3.66238 15.3878 3.5 16 3.5C16.3955 3.5 16.8442 3.68662 17.2432 3.99499C17.6539 4.31235 18.049 4.78532 18.3319 5.42193C18.9015 6.70359 18.9989 8.59896 17.9642 11.1857C17.2092 13.0734 16.0068 14.3327 14.746 15.1494C15.2738 15.5639 16.0154 15.8875 17.0552 16.0031C17.3297 16.0336 17.5274 16.2808 17.4969 16.5552C17.4664 16.8297 17.2192 17.0274 16.9448 16.9969C15.5318 16.84 14.5202 16.3366 13.8206 15.6696C12.5444 16.2866 11.305 16.5 10.5 16.5C10.2239 16.5 10 16.2761 10 16C10 15.7239 10.2239 15.5 10.5 15.5C11.1421 15.5 12.1281 15.3364 13.1676 14.8716C13.1665 14.8697 13.1653 14.8679 13.1642 14.866C12.5298 13.8566 12.4123 12.7285 12.5 11.97V3.86205C12.5 3.74508 12.459 3.63182 12.3841 3.54196L10.8841 1.74196C10.6842 1.50208 10.3158 1.50208 10.1159 1.74196L8.5 3.68103V14C8.5 14.2762 8.27615 14.5 8 14.5C7.72386 14.5 7.5 14.2762 7.5 14V3.68103L5.88944 1.74835C5.68993 1.50895 5.32241 1.50839 5.12219 1.74719L3.5 3.68188V14C3.5 14.2761 3.27615 14.5 3 14.5C2.72386 14.5 2.5 14.2761 2.5 14V3.67539L0.609569 1.31235C0.437064 1.09672 0.472025 0.782074 0.687656 0.609569ZM13.5 12.0063C13.5001 12.0017 13.5001 11.997 13.5 11.9924L13.5 6.20717C14.178 5.52988 14.6086 5.10832 14.9781 4.84437C15.3376 4.58763 15.6122 4.5 16 4.5C16.1045 4.5 16.3433 4.56338 16.6318 4.78627C16.9086 5.00016 17.201 5.33969 17.4181 5.82807C17.8485 6.79641 18.0011 8.40105 17.0358 10.8143C16.3403 12.5529 15.2151 13.6865 14.0551 14.4024C14.0399 14.3796 14.0252 14.3568 14.0108 14.334C13.6258 13.7213 13.4856 13.0423 13.4749 12.5H13.5V12.0063Z" fill="black"/>
</svg>
